<?xml version="1.0" encoding="utf-8"?>
<!-- Generator: Adobe Illustrator 18.0.0, SVG Export Plug-In . SVG Version: 6.00 Build 0)  -->
<!DOCTYPE svg PUBLIC "-//W3C//DTD SVG 1.1//EN" "http://www.w3.org/Graphics/SVG/1.1/DTD/svg11.dtd">
<svg version="1.1" id="head" xmlns="http://www.w3.org/2000/svg" xmlns:xlink="http://www.w3.org/1999/xlink" x="0px" y="0px"
	 width="210px" height="236px" viewBox="0 0 210 236" enable-background="new 0 0 210 236" xml:space="preserve">
<g id="grey_38_">
	<polygon id="shirt_1_" fill="#1F293A" points="54.7,185.3 39.6,202 39.6,236.4 107,236.4 174.4,236.4 174.4,202 159.2,185.3 
		127.3,185.3 107.2,205.9 85.9,185.3 	"/>
</g>
<polygon fill="#D5EAFB" points="115.7,236.4 98.8,236.4 89.4,185.3 103,200.4 107,199.8 111.8,200.4 124.9,185.3 "/>
<polygon opacity="0.27" fill="#AFAFAF" points="116.3,236.4 98.2,236.4 89.4,185.3 103,200.4 107,199.8 111.8,200.4 124.3,184.5 "/>
<polygon opacity="0.27" fill="#AFAFAF" points="103,200.4 102.7,236.4 107.4,236.4 107.4,199.8 "/>
<polygon opacity="0.27" fill="#AFAFAF" points="111.8,200.4 112,236.4 107.4,236.4 107.4,199.8 "/>
<polygon fill="#151D28" points="84.8,185.3 78.4,191.8 83.6,195.6 79.4,199 95.5,236.4 107,236.4 89.9,184.2 "/>
<polygon fill="#151D28" points="129.9,185.3 136.3,191.8 131,195.6 135.3,199 119.1,236.4 107.5,236.4 124.3,184.5 "/>
<polygon fill="#D5EAFB" points="74.9,201.1 94.4,194.9 102.8,200.4 89.9,184.2 "/>
<polygon fill="#D5EAFB" points="124.3,185.8 139.6,201.1 120,194.9 111.7,200.4 124.3,184.5 "/>
<polygon opacity="0.1" points="159.6,185.4 130,185.3 124.4,184.5 111.6,200.4 107,199.8 107,236 174.4,236 175,201.8 "/>
</svg>
