<?xml version="1.0" encoding="utf-8"?>
<!-- Generator: Adobe Illustrator 18.0.0, SVG Export Plug-In . SVG Version: 6.00 Build 0)  -->
<!DOCTYPE svg PUBLIC "-//W3C//DTD SVG 1.1//EN" "http://www.w3.org/Graphics/SVG/1.1/DTD/svg11.dtd">
<svg version="1.1" id="head" xmlns="http://www.w3.org/2000/svg" xmlns:xlink="http://www.w3.org/1999/xlink" x="0px" y="0px"
	 width="210px" height="236px" viewBox="0 0 210 236" enable-background="new 0 0 210 236" xml:space="preserve">
<g>
	<polyline fill="#FFFFFF" points="152,131.9 146,137 146,137 146,147.1 125,168 125,203.2 152,174 	"/>
	<polygon fill="#FFFFFF" points="62,121.7 68,116.1 68,86.9 146,87 146,116.4 152,122 152,76.6 130.2,54.6 84,54.6 62,76.6 	"/>
	<polygon fill="#FFFFFF" points="62,174 89,203.2 89,167.8 68,147.1 68,137.1 62,131.6 	"/>
</g>
<polygon id="shadow_2_" opacity="0.15" points="152,174 152,141.6 152,76.6 130.2,54.7 105,54.6 105,86.9 146,87 146,116.4 152,122 
	152,131.9 146,137.4 146,147.1 125,168 125,203.2 "/>
</svg>
