<?xml version="1.0" encoding="utf-8"?>
<!-- Generator: Adobe Illustrator 18.0.0, SVG Export Plug-In . SVG Version: 6.00 Build 0)  -->
<!DOCTYPE svg PUBLIC "-//W3C//DTD SVG 1.1//EN" "http://www.w3.org/Graphics/SVG/1.1/DTD/svg11.dtd">
<svg version="1.1" id="head" xmlns="http://www.w3.org/2000/svg" xmlns:xlink="http://www.w3.org/1999/xlink" x="0px" y="0px"
	 width="210px" height="236px" viewBox="0 0 210 236" enable-background="new 0 0 210 236" xml:space="preserve">
<g>
	<polygon fill="#FFFFFF" points="146,149.5 152,143.9 152,131.3 146,136.9 	"/>
</g>
<g>
	<polygon fill="#FFFFFF" points="130.1,56.4 107,56.4 79.1,56.4 57,78.4 57,126 62,131.6 62,121.7 68,116.1 68,101 82.2,92 107,92 
		108.6,92 116.7,84.1 130.2,84.1 146,100 146,116.5 152,122 152,78.4 	"/>
</g>
<polygon opacity="0.15" points="130.1,56.4 105,56.4 105,92 108.6,92 116.7,84.1 130.2,84.1 146,100 146,116.5 152,121.7 152,78.4 
	"/>
<polygon opacity="0.15" points="146,136.9 146,149.5 152,143.9 152,131.3 "/>
</svg>
