<?xml version="1.0" encoding="utf-8"?>
<!-- Generator: Adobe Illustrator 18.0.0, SVG Export Plug-In . SVG Version: 6.00 Build 0)  -->
<!DOCTYPE svg PUBLIC "-//W3C//DTD SVG 1.1//EN" "http://www.w3.org/Graphics/SVG/1.1/DTD/svg11.dtd">
<svg version="1.1" id="head" xmlns="http://www.w3.org/2000/svg" xmlns:xlink="http://www.w3.org/1999/xlink" x="0px" y="0px"
	 width="210px" height="236px" viewBox="0 0 210 236" enable-background="new 0 0 210 236" xml:space="preserve">
<g id="red_7_">
	<polygon fill="#FFFFFF" points="152,122.3 146,116.6 146,84 68,84 68,116.3 62,121.9 62,131.9 68,137.4 68,149.7 89,170.6 
		89,186.6 107,205 125,186.6 125,170.9 146.4,149.8 146.4,137.5 152,132.3 	"/>
	<polygon id="shadow_4_" opacity="0.15" points="125,186.6 125,170.8 146.4,149.8 146.4,137.5 152,132.3 152,122.3 146,116.6 
		146,84 107,84 107,127.3 97.4,127.3 107,137 107,176.7 95,176.7 89.1,170.6 89.1,181.1 107,181.1 107.1,205 	"/>
</g>
</svg>
