<?xml version="1.0" encoding="utf-8"?>
<!-- Generator: Adobe Illustrator 18.0.0, SVG Export Plug-In . SVG Version: 6.00 Build 0)  -->
<!DOCTYPE svg PUBLIC "-//W3C//DTD SVG 1.1//EN" "http://www.w3.org/Graphics/SVG/1.1/DTD/svg11.dtd">
<svg version="1.1" id="head" xmlns="http://www.w3.org/2000/svg" xmlns:xlink="http://www.w3.org/1999/xlink" x="0px" y="0px"
	 width="210px" height="236px" viewBox="0 0 210 236" enable-background="new 0 0 210 236" xml:space="preserve">
<g>
	<polygon fill="#FFFFFF" points="130.6,57.5 79.9,57.3 58,79.4 58,174.5 68.2,185.2 89,185.2 89,169.9 68.1,149.2 68,136.1 
		63,131.4 63,121.5 68.4,115.9 68.4,107.8 83,98.9 109.3,99 124.3,84.4 145.8,107 146.4,149.3 125,170.2 125,215.4 152.6,185.2 
		152.6,79.4 	"/>
</g>
<polygon id="shadow_3_" opacity="0.15" points="152.6,185.2 152.3,79.1 130.4,57.2 105.3,57.6 105.3,99 109.3,99 124.3,84.4 
	145.8,107 146.2,135.9 146.4,149.3 125,170.2 125,215.4 "/>
</svg>
