<?xml version="1.0" encoding="utf-8"?>
<!-- Generator: Adobe Illustrator 18.0.0, SVG Export Plug-In . SVG Version: 6.00 Build 0)  -->
<!DOCTYPE svg PUBLIC "-//W3C//DTD SVG 1.1//EN" "http://www.w3.org/Graphics/SVG/1.1/DTD/svg11.dtd">
<svg version="1.1" id="head" xmlns="http://www.w3.org/2000/svg" xmlns:xlink="http://www.w3.org/1999/xlink" x="0px" y="0px"
	 width="210px" height="236px" viewBox="0 0 210 236" enable-background="new 0 0 210 236" xml:space="preserve">
<polygon fill="#FFFFFF" points="136.5,60 75.3,60 59,80.8 59,150.3 89,181.8 89,170 68,148.2 68,137.1 62,131.6 62,122.8 69,115.7 
	69,95.8 78.5,84 134.9,84 146,95.8 146,122.1 146,143.8 146,149.4 125,170.3 125,199.1 159,165.9 159,82.3 "/>
<polygon id="shadow_1_" opacity="0.15" points="159,82.3 136.5,60 105,60 105,84 134.8,84 146,95.8 146,149.4 125,170.3 125,199.1 
	159,165.9 "/>
</svg>
