<?xml version="1.0" encoding="utf-8"?>
<!-- Generator: Adobe Illustrator 18.0.0, SVG Export Plug-In . SVG Version: 6.00 Build 0)  -->
<!DOCTYPE svg PUBLIC "-//W3C//DTD SVG 1.1//EN" "http://www.w3.org/Graphics/SVG/1.1/DTD/svg11.dtd">
<svg version="1.1" id="head" xmlns="http://www.w3.org/2000/svg" xmlns:xlink="http://www.w3.org/1999/xlink" x="0px" y="0px"
	 width="210px" height="236px" viewBox="0 0 210 236" enable-background="new 0 0 210 236" xml:space="preserve">
<g id="grey_55_">
	<polygon id="shirt_79_" fill="#1962FF" points="55.5,184.7 40.2,199.7 40.2,235.8 106.9,235.8 173.7,235.8 173.7,199.7 
		158.4,184.7 126.9,184.7 107.3,202.5 86.4,184.7 	"/>
</g>
<polygon fill="#115DB7" points="113.1,197.5 171.4,197.5 172.5,198.5 113.1,198.5 "/>
<polygon fill="#115DB7" points="101.6,198.5 41.4,198.5 42.5,197.5 101.6,197.5 "/>
<polygon fill="#115DB7" points="101.6,197.6 107.4,202.5 113.1,197.5 113.1,235.8 101.6,235.8 "/>
<ellipse fill="#FFFBEA" cx="107.3" cy="208.3" rx="2.9" ry="2.8"/>
<ellipse fill="#FFFBEA" cx="107.3" cy="224.9" rx="2.9" ry="2.8"/>
<g>
	<rect x="113.1" y="220.7" fill="#115DB7" width="60.6" height="1.1"/>
	<rect x="40.2" y="220.7" fill="#115DB7" width="61.3" height="1.1"/>
</g>
<path fill="#1962FF" d="M126.9,184.7"/>
<polygon opacity="0.15" points="158.5,185 126.9,184.7 107.4,202.5 107.3,236 174,236 174,199.6 "/>
</svg>
