<?xml version="1.0" encoding="utf-8"?>
<!-- Generator: Adobe Illustrator 18.0.0, SVG Export Plug-In . SVG Version: 6.00 Build 0)  -->
<!DOCTYPE svg PUBLIC "-//W3C//DTD SVG 1.1//EN" "http://www.w3.org/Graphics/SVG/1.1/DTD/svg11.dtd">
<svg version="1.1" id="head" xmlns="http://www.w3.org/2000/svg" xmlns:xlink="http://www.w3.org/1999/xlink" x="0px" y="0px"
	 width="210px" height="236px" viewBox="0 0 210 236" enable-background="new 0 0 210 236" xml:space="preserve">
<g id="grey_51_">
	<polygon id="shirt_75_" fill="#8A8CAD" points="55.4,185 40.2,199.4 40.2,236.1 106.7,236.1 173.1,236.1 173.1,199.4 157.9,185 
		129.2,185 107,203.4 83.6,185 	"/>
</g>
<polygon fill="#1F293A" points="88.9,178.1 86.5,178.1 70.5,205.2 92.4,191 107,206.7 107,203.4 88.9,184.8 "/>
<polygon fill="#1F293A" points="124.2,178.1 126.6,178.1 142.5,205.2 121.3,191 107,206.7 107,203.4 124.2,184.8 "/>
<polygon opacity="0.4" fill="#1F293A" points="101.6,200 107.1,203.4 112.4,199.9 112.4,236.1 101.6,236.1 "/>
<circle cx="107" cy="210.6" r="2.7"/>
<circle cx="107" cy="231.2" r="2.7"/>
<polygon opacity="0.1" points="158.2,185 127.3,185 107,203.4 107,236 174,236 174,199.3 "/>
</svg>
