<?xml version="1.0" encoding="utf-8"?>
<!-- Generator: Adobe Illustrator 19.1.0, SVG Export Plug-In . SVG Version: 6.00 Build 0)  -->
<svg version="1.1" id="Layer_1" xmlns="http://www.w3.org/2000/svg" xmlns:xlink="http://www.w3.org/1999/xlink" x="0px" y="0px"
	 viewBox="-145 375.3 320 42.7" style="enable-background:new -145 375.3 320 42.7;" xml:space="preserve">
<style type="text/css">
	.st0{fill:#1F293A;}
	.st1{fill:#FFFFFF;}
</style>
<rect x="-145" y="375.3" class="st0" width="320" height="42"/>
<g>
	<path class="st1" d="M-23.3,402.7H-26l-0.9-2.8h-5.3l-0.9,2.8h-2.7l4.9-13.6h2.8L-23.3,402.7z M-31.5,397.7h3.9l-1.9-6.1
		L-31.5,397.7z"/>
	<path class="st1" d="M-17.2,402.7H-20l-3.4-10.1h2.6l2.2,7.4l2.2-7.4h2.6L-17.2,402.7z"/>
	<path class="st1" d="M-13.2,399.8c0-2.2,1.6-3.2,4.1-3.2c1.2,0,2.1,0.5,2.6,0.9v-1.4c0-0.9-0.7-1.6-1.7-1.6c-0.9,0-1.5,0.4-1.7,0.9
		h-2.4c0.6-2,2.2-3,4.3-3c2.5,0,4.2,1.5,4.2,3.9v6.4h-2.5v-0.9c-0.5,0.7-1.7,1.2-2.9,1.2C-11.6,402.9-13.2,401.8-13.2,399.8z
		 M-6.6,399.7c0-0.9-0.9-1.4-2.1-1.4c-1.2,0-2,0.5-2,1.4s0.8,1.5,1.9,1.5C-7.5,401.2-6.6,400.6-6.6,399.7z"/>
	<path class="st1" d="M-0.9,399.8v-5.1h-1.4v-2.1h1.4v-2.8h2.7v2.8H4v2.1H1.8v4.9c0,0.7,0.3,0.9,0.9,0.9h1.1v2.1H2
		C0,402.7-0.9,401.6-0.9,399.8z"/>
	<path class="st1" d="M5.4,399.8c0-2.2,1.6-3.2,4.1-3.2c1.2,0,2.1,0.5,2.6,0.9v-1.4c0-0.9-0.7-1.6-1.7-1.6c-0.9,0-1.5,0.4-1.7,0.9
		H6.3c0.6-2,2.2-3,4.3-3c2.5,0,4.2,1.5,4.2,3.9v6.4h-2.5v-0.9c-0.5,0.7-1.7,1.2-2.9,1.2C6.9,402.9,5.4,401.8,5.4,399.8z M12,399.7
		c0-0.9-0.9-1.4-2.1-1.4c-1.2,0-2,0.5-2,1.4s0.8,1.5,1.9,1.5C11,401.2,12,400.6,12,399.7z"/>
	<path class="st1" d="M17,392.6h2.5v2c0.3-1.5,1.5-2,3-2h0.3v2.6h-0.5c-1.7,0-2.7,0.9-2.7,2.9v4.7H17V392.6z"/>
	<path class="st1" d="M30.3,389.1c3.6,0,5.6,2.2,5.6,5.3v2.9c0,3.1-1.9,5.3-5.6,5.3h-5.5v-13.5H30.3z M33.1,394.5
		c0-2-1.1-3.1-3.3-3.1h-2.3v9.1h2.3c2.2,0,3.3-1.1,3.3-3.1V394.5z"/>
	<path class="st1" d="M47.1,402.7h-2.5v-1.2c-0.5,0.9-1.6,1.4-2.9,1.4c-2.3,0-3.5-1.6-3.5-3.9v-6.5h2.6v6.1c0,1.3,0.6,2,1.8,2
		s1.9-0.8,1.9-2v-6.1h2.6L47.1,402.7L47.1,402.7z"/>
	<path class="st1" d="M50.3,399.8v-5.1h-1.4v-2.1h1.4v-2.8H53v2.8h2.2v2.1H53v4.9c0,0.7,0.3,0.9,0.9,0.9H55v2.1h-1.8
		C51.2,402.7,50.3,401.6,50.3,399.8z"/>
	<path class="st1" d="M58.8,406.1l1-3.4l-3.5-10h2.6l2.2,7.2l2.1-7.2h2.6l-4.4,13.4C61.4,406.1,58.8,406.1,58.8,406.1z"/>
</g>
</svg>
