<?xml version="1.0" encoding="utf-8"?>
<!-- Generator: Adobe Illustrator 18.0.0, SVG Export Plug-In . SVG Version: 6.00 Build 0)  -->
<!DOCTYPE svg PUBLIC "-//W3C//DTD SVG 1.1//EN" "http://www.w3.org/Graphics/SVG/1.1/DTD/svg11.dtd">
<svg version="1.1" id="head" xmlns="http://www.w3.org/2000/svg" xmlns:xlink="http://www.w3.org/1999/xlink" x="0px" y="0px"
	 width="210px" height="236px" viewBox="0 0 210 236" enable-background="new 0 0 210 236" xml:space="preserve">
<g id="grey_39_">
	<polygon fill="#FFFFFF" points="155,107.1 149,101.1 149,76 148.9,64.5 136.3,52 76.9,52 65.2,64.8 65,101.1 59,107.1 59,117.7 
		65,123.7 65,148.8 87,171 87,183.6 107,203.1 127,183.6 127,171 149,148.8 149,123.7 155,117.7 	"/>
</g>
<polygon id="shadow_42_" opacity="0.15" points="127,183.6 127,171 149,148.8 148.9,123.7 155,117.7 155,107.1 149,101.1 
	148.9,64.5 136.3,52 106.9,52 106.9,110.1 96.6,110.1 103,116.4 106.9,120.3 106.9,171.4 87,171.4 87,177.7 106.9,177.7 
	106.9,203.1 "/>
</svg>
