<?xml version="1.0" encoding="utf-8"?>
<!-- Generator: Adobe Illustrator 18.0.0, SVG Export Plug-In . SVG Version: 6.00 Build 0)  -->
<!DOCTYPE svg PUBLIC "-//W3C//DTD SVG 1.1//EN" "http://www.w3.org/Graphics/SVG/1.1/DTD/svg11.dtd">
<svg version="1.1" id="head" xmlns="http://www.w3.org/2000/svg" xmlns:xlink="http://www.w3.org/1999/xlink" x="0px" y="0px"
	 width="210px" height="236px" viewBox="0 0 210 236" enable-background="new 0 0 210 236" xml:space="preserve">
<g id="grey_1_">
	<polygon id="shirt_2_" fill="#565F6A" points="51.5,183.1 35,199.2 35,236 106.9,236 178.9,236 178.9,199.2 162.4,183.1 
		128.4,183.1 107.3,193.8 84.8,183 	"/>
</g>
<polygon fill="#151D28" points="101.1,189.8 107.4,192.7 113.5,189.7 113.5,236 101.1,236 "/>
<ellipse fill="#1F293A" cx="107.4" cy="197.7" rx="3.1" ry="3"/>
<ellipse fill="#1F293A" cx="107.4" cy="226.4" rx="3.1" ry="3"/>
<path fill="#8F949C" d="M128.4,183.1"/>
<rect x="132.8" y="183.1" fill="#1E2939" width="3.2" height="52.9"/>
<rect x="155.1" y="183.1" fill="#1E2939" width="3.2" height="52.9"/>
<polygon fill="#1E2939" points="173.7,194.4 170.5,191 130.6,191 130.7,194.4 "/>
<rect x="55.6" y="183.1" fill="#1E2939" width="3.2" height="52.9"/>
<rect x="77.9" y="183.1" fill="#1E2939" width="3.2" height="52.9"/>
<polygon fill="#1E2939" points="43.3,191 40,194.4 82.8,194.4 82.9,191 "/>
<rect x="113.5" y="224.4" fill="#8F949C" width="65.4" height="1.6"/>
<rect x="35" y="224.4" fill="#8F949C" width="66.1" height="1.6"/>
<rect x="113.5" y="202.8" fill="#8F949C" width="65.4" height="1.6"/>
<rect x="35" y="202.8" fill="#8F949C" width="66.1" height="1.6"/>
<polygon fill="#8F949C" points="42.8,236 41.6,236 41.6,192.7 42.8,191.5 "/>
<polygon fill="#8F949C" points="50.3,236 49.1,236 49.1,185.4 50.3,184.5 "/>
<rect x="64" y="183.1" fill="#8F949C" width="1.2" height="52.9"/>
<rect x="71.5" y="183.1" fill="#8F949C" width="1.2" height="52.9"/>
<polygon fill="#8F949C" points="87.6,236 86.5,236 86.5,183.3 87.6,184.1 "/>
<rect x="93.9" y="196.8" fill="#8F949C" width="1.2" height="39.2"/>
<rect x="118.7" y="192.8" fill="#8F949C" width="1.2" height="43.2"/>
<polygon fill="#8F949C" points="127.4,236 126.2,236 126.2,184.3 127.4,183.3 "/>
<rect x="141.1" y="183.1" fill="#8F949C" width="1.2" height="52.9"/>
<rect x="148.6" y="183.1" fill="#8F949C" width="1.2" height="52.9"/>
<polygon fill="#8F949C" points="164.7,236 163.5,236 163.5,184.2 164.7,185.3 "/>
<polygon fill="#8F949C" points="172.2,236 171,236 171,191.5 172.2,192.8 "/>
<g>
	<rect x="35" y="212.8" fill="#1E2939" width="66.1" height="3.3"/>
	<rect x="113.5" y="212.8" fill="#1E2939" width="65.4" height="3.3"/>
</g>
<polygon fill="#151D28" points="86.7,175.6 84,175.6 81.7,205.7 103.7,190.9 102.5,188.8 86.7,183 "/>
<polygon fill="#151D28" points="126.9,175.6 129.5,175.6 131.8,205.7 111,190.9 111.8,188.8 126.9,183 "/>
<polygon opacity="0.1" points="162.5,183 130.1,183 129.5,176 127,176 127,183 111.8,189 111.1,191 107.4,192.7 107.4,236 179,236 
	179,199.1 "/>
</svg>
