<?xml version="1.0" encoding="utf-8"?>
<!-- Generator: Adobe Illustrator 18.0.0, SVG Export Plug-In . SVG Version: 6.00 Build 0)  -->
<!DOCTYPE svg PUBLIC "-//W3C//DTD SVG 1.1//EN" "http://www.w3.org/Graphics/SVG/1.1/DTD/svg11.dtd">
<svg version="1.1" id="head" xmlns="http://www.w3.org/2000/svg" xmlns:xlink="http://www.w3.org/1999/xlink" x="0px" y="0px"
	 width="210px" height="236px" viewBox="0 0 210 236" enable-background="new 0 0 210 236" xml:space="preserve">
<g id="grey_38_">
	<polygon id="shirt_1_" fill="#1F293A" points="51.5,181.9 35,190.7 35,234.8 107,234.8 178.9,234.8 178.9,190.7 162.5,181.9 
		130.3,181.9 107.2,195.8 82.8,181.9 	"/>
</g>
<polygon fill="#D5EAFB" points="117,234.8 97.6,234.8 86.8,181.9 102.4,192.2 107,191.6 112.5,192.2 127.6,181.9 "/>
<polygon opacity="0.27" fill="#AFAFAF" points="117.6,234.8 97,234.8 86.8,181.9 102.4,192.2 107,191.6 112.5,192.2 126.9,181 "/>
<polygon fill="#1DB831" points="103.6,191.7 102.4,192.2 104.6,197.5 100.5,234.8 107.4,234.8 107.4,191.6 "/>
<polygon fill="#1DB831" points="111.2,191.6 112.5,192.2 110.3,197.5 114.4,234.8 107.4,234.8 107.4,191.6 "/>
<polygon fill="#151D28" points="81.5,181.9 74.1,189.4 80.1,193.7 75.3,197.6 93.8,234.8 107,234.8 87.4,180.6 "/>
<polygon fill="#151D28" points="133.2,181.9 140.6,189.4 134.6,193.7 139.4,197.6 120.9,234.8 107.6,234.8 126.9,181 "/>
<polygon fill="#D5EAFB" points="88.3,200 102.1,192.2 87.4,180.6 "/>
<polygon fill="#D5EAFB" points="126.9,182.4 126.3,200 112.4,192.2 126.9,181 "/>
<polygon opacity="0.1" points="162.5,182 133.2,181.9 126.9,181 112.5,192.2 111.2,191.6 107.4,191.6 107,202.6 107,235 179,235 
	179,190.7 "/>
</svg>
