<?xml version="1.0" encoding="utf-8"?>
<!-- Generator: Adobe Illustrator 18.0.0, SVG Export Plug-In . SVG Version: 6.00 Build 0)  -->
<!DOCTYPE svg PUBLIC "-//W3C//DTD SVG 1.1//EN" "http://www.w3.org/Graphics/SVG/1.1/DTD/svg11.dtd">
<svg version="1.1" id="head" xmlns="http://www.w3.org/2000/svg" xmlns:xlink="http://www.w3.org/1999/xlink" x="0px" y="0px"
	 width="210px" height="236px" viewBox="0 0 210 236" enable-background="new 0 0 210 236" xml:space="preserve">
<g>
	<polygon fill="#FFFFFF" points="149,83.5 149,55 149,54.9 148.9,83.4 	"/>
	<polygon fill="#FFFFFF" points="77.3,43 64.9,55.3 64.9,83.6 77.3,71 107,71 107,43 	"/>
	<polygon fill="#FFFFFF" points="136.7,43 136.7,43 141.3,47.8 	"/>
	<polygon fill="#FFFFFF" points="136.5,43 106.9,43 136.7,43 	"/>
	<polygon fill="#FFFFFF" points="149,54.9 141.2,47.2 149,54.9 	"/>
	<polygon fill="#FFFFFF" points="149,83.4 149.1,54.9 141.3,47.5 136.7,43 107,43 107,71 136.7,71 	"/>
</g>
<polygon opacity="0.15" points="149,83.4 149.1,54.9 141.3,47.5 136.7,43 107,43 107,71 136.7,71 "/>
</svg>
