<?xml version="1.0" encoding="utf-8"?>
<!-- Generator: Adobe Illustrator 18.0.0, SVG Export Plug-In . SVG Version: 6.00 Build 0)  -->
<!DOCTYPE svg PUBLIC "-//W3C//DTD SVG 1.1//EN" "http://www.w3.org/Graphics/SVG/1.1/DTD/svg11.dtd">
<svg version="1.1" id="head" xmlns="http://www.w3.org/2000/svg" xmlns:xlink="http://www.w3.org/1999/xlink" x="0px" y="0px"
	 width="210px" height="236px" viewBox="0 0 210 236" enable-background="new 0 0 210 236" xml:space="preserve">
<g id="grey_55_">
	<polygon id="shirt_79_" fill="#1962FF" points="51.5,183.1 35,199.2 35,236 106.9,236 178.9,236 178.9,199.2 162.4,183.1 
		128.4,183.1 107.3,193.8 84.8,183 	"/>
</g>
<polygon fill="#115DB7" points="113.5,196.8 176.4,196.8 177.6,198 113.5,198 "/>
<polygon fill="#115DB7" points="101.1,198 36.3,198 37.5,196.8 101.1,196.8 "/>
<rect x="61.3" y="183.1" fill="#115DB7" width="7.1" height="52.9"/>
<polygon fill="#115DB7" points="74,236 72.8,236 72.8,183.2 74,183.8 "/>
<polygon fill="#115DB7" points="140.4,236 139.3,236 139.3,183.2 140.4,183.8 "/>
<polygon fill="#115DB7" points="159.6,236 158.4,236 158.4,183.2 159.6,183.8 "/>
<polygon fill="#115DB7" points="56,236 54.8,236 54.8,183.2 56,183.8 "/>
<rect x="145.5" y="183.1" fill="#115DB7" width="7.1" height="52.9"/>
<polygon fill="#90B3FD" points="101.1,189.8 107.4,192.7 113.5,189.7 113.5,236 101.1,236 "/>
<ellipse fill="#FFFBEA" cx="107.4" cy="197.7" rx="3.1" ry="3"/>
<ellipse fill="#FFFBEA" cx="107.4" cy="226.4" rx="3.1" ry="3"/>
<g>
	<rect x="113.5" y="221.9" fill="#115DB7" width="65.3" height="1.1"/>
	<rect x="35" y="221.9" fill="#115DB7" width="66.1" height="1.1"/>
</g>
<polygon fill="#90B3FD" points="86.7,175.6 84,175.6 81.7,205.7 103.7,190.9 102.5,188.8 86.7,183 "/>
<polygon fill="#90B3FD" points="126.9,175.6 129.5,175.6 131.8,205.7 111,190.9 111.8,188.8 126.9,183 "/>
<path fill="#1962FF" d="M128.4,183.1"/>
<polygon opacity="0.1" points="162.5,183 127,183 107.4,192.7 107,203.1 107,236 179,236 179,199.1 "/>
</svg>
