<?xml version="1.0" encoding="utf-8"?>
<!-- Generator: Adobe Illustrator 18.0.0, SVG Export Plug-In . SVG Version: 6.00 Build 0)  -->
<!DOCTYPE svg PUBLIC "-//W3C//DTD SVG 1.1//EN" "http://www.w3.org/Graphics/SVG/1.1/DTD/svg11.dtd">
<svg version="1.1" id="head" xmlns="http://www.w3.org/2000/svg" xmlns:xlink="http://www.w3.org/1999/xlink" x="0px" y="0px"
	 width="210px" height="236px" viewBox="0 0 210 236" enable-background="new 0 0 210 236" xml:space="preserve">
<g id="grey_51_">
	<polygon id="shirt_75_" fill="#8A8CAD" points="51.2,182.1 34.7,198.6 34.7,236 106.6,236 178.6,236 178.6,198.6 162.1,182.1 
		128.3,182.1 107.1,192.8 84.3,182.1 	"/>
</g>
<polygon fill="#1F293A" points="86.4,174.3 83.7,174.3 81.4,205.2 103.4,190 102.2,187.8 86.4,181.9 "/>
<polygon fill="#1F293A" points="126.5,174.3 129.2,174.3 131.5,205.2 110.7,190 111.5,187.9 126.5,181.9 "/>
<polygon opacity="0.4" fill="#1F293A" points="100.8,188.9 107.1,191.8 113.2,188.7 113.2,236 100.8,236 "/>
<circle cx="107.1" cy="197" r="3.1"/>
<circle cx="107.1" cy="222.5" r="3.1"/>
<g id="grey_52_" opacity="0.4">
	<polygon id="shirt_76_" fill="#1F293A" points="135.1,213.4 131.9,216.2 131.9,236 145.9,236 160,236 160,216.2 156.7,213.4 	"/>
</g>
<polygon opacity="0.1" points="162.5,182 127,182 107.4,191.9 107,202.6 107,236 179,236 179,198.5 "/>
</svg>
