<?xml version="1.0" encoding="utf-8"?>
<!-- Generator: Adobe Illustrator 18.0.0, SVG Export Plug-In . SVG Version: 6.00 Build 0)  -->
<!DOCTYPE svg PUBLIC "-//W3C//DTD SVG 1.1//EN" "http://www.w3.org/Graphics/SVG/1.1/DTD/svg11.dtd">
<svg version="1.1" id="head" xmlns="http://www.w3.org/2000/svg" xmlns:xlink="http://www.w3.org/1999/xlink" x="0px" y="0px"
	 width="210px" height="236px" viewBox="0 0 210 236" enable-background="new 0 0 210 236" xml:space="preserve">
<g>
	<polygon fill="#FFFFFF" points="77.1,33 65,45.7 65,76.2 65,76.3 65,102.2 69,97.2 69,71.4 77,64 107,64 107,33 	"/>
	<polygon fill="#FFFFFF" points="149,76.3 149,50.4 149,45.7 148.9,45.5 149,98.1 	"/>
	<polygon fill="#FFFFFF" points="149,45.5 136.9,33 149,45.5 	"/>
	<polygon fill="#FFFFFF" points="145,71.5 145,97.2 149,102.2 149,98.1 148.9,45.5 136.8,33 107,33 107,64 136.6,64 	"/>
</g>
<polygon fill="#FFFFFF" points="149,45.5 136.9,33 149,45.5 "/>
<polygon opacity="0.15" points="145,71.5 145,97.2 149,102.2 149,98.1 148.9,45.5 136.8,33 107,33 107,64 136.6,64 "/>
</svg>
