<?xml version="1.0" encoding="utf-8"?>
<!-- Generator: Adobe Illustrator 18.0.0, SVG Export Plug-In . SVG Version: 6.00 Build 0)  -->
<!DOCTYPE svg PUBLIC "-//W3C//DTD SVG 1.1//EN" "http://www.w3.org/Graphics/SVG/1.1/DTD/svg11.dtd">
<svg version="1.1" id="head" xmlns="http://www.w3.org/2000/svg" xmlns:xlink="http://www.w3.org/1999/xlink" x="0px" y="0px"
	 width="210px" height="236px" viewBox="0 0 210 236" enable-background="new 0 0 210 236" xml:space="preserve">
<g>
	<polygon fill="#FFFFFF" points="65,148.8 65,123.7 59,117.7 59,107.3 65,101.1 65.2,78.4 75.4,68.1 105,68 105,31 75,31 45,51 
		45,149 87,177.3 87,171 	"/>
	<polygon fill="#FFFFFF" points="135.3,31 105,31 105,68 139.8,68 149,77 149,77 149,80.8 149,101.1 155,107.1 155,117.7 149,123.7 
		149,148.8 127,170 127,177.3 166.9,145.8 167,52.9 	"/>
	<polygon opacity="0.15" points="135.3,31 105,31 105,68 139.8,68 149,77 149,101.1 155,107.1 155,117.7 149,123.7 149,148.8 
		127.3,170 127,170 127,177.3 166.9,145.8 167,52.9 	"/>
</g>
</svg>
