<?xml version="1.0" encoding="utf-8"?>
<!-- Generator: Adobe Illustrator 18.0.0, SVG Export Plug-In . SVG Version: 6.00 Build 0)  -->
<!DOCTYPE svg PUBLIC "-//W3C//DTD SVG 1.1//EN" "http://www.w3.org/Graphics/SVG/1.1/DTD/svg11.dtd">
<svg version="1.1" id="head" xmlns="http://www.w3.org/2000/svg" xmlns:xlink="http://www.w3.org/1999/xlink" x="0px" y="0px"
	 width="210px" height="236px" viewBox="0 0 210 236" enable-background="new 0 0 210 236" xml:space="preserve">
<g id="grey_47_">
	<polygon id="shirt_71_" fill="#1F293A" points="51.5,182 35.1,198.4 35.1,234.8 107,234.8 178.9,234.8 178.9,198.4 162.5,182 
		128.7,182 107,190.8 85.5,182 	"/>
</g>
<polygon fill="#D5EAFB" points="86.8,174.1 84.1,174.1 82.5,202.7 100.9,191.1 102.6,187.7 86.8,181.8 "/>
<polygon fill="#D5EAFB" points="126.9,174.1 129.6,174.1 131.1,202.7 113.6,191.2 111.8,187.7 126.9,181.8 "/>
<path d="M102.5,234.9c0-2.6,2.1-4.7,4.7-4.7s4.7,2.1,4.7,4.7"/>
<circle cx="107.1" cy="201.6" r="4.5"/>
<polygon opacity="0.3" points="82.5,202.7 100.9,191.1 102.6,187.7 "/>
<polygon opacity="0.3" points="131.1,202.7 113.6,191.2 111.8,187.7 "/>
<polygon opacity="0.1" points="162.5,182 127,182 107.4,190.8 107,202.6 107,235 179,235 179,198.5 "/>
</svg>
