<?xml version="1.0" encoding="UTF-8" standalone="no"?>
<svg width="72px" height="43px" viewBox="0 0 72 43" version="1.1" xmlns="http://www.w3.org/2000/svg" xmlns:xlink="http://www.w3.org/1999/xlink" xmlns:sketch="http://www.bohemiancoding.com/sketch/ns">
    <!-- Generator: Sketch 3.4.2 (15857) - http://www.bohemiancoding.com/sketch -->
    <title>save</title>
    <desc>Created with Sketch.</desc>
    <defs></defs>
    <g id="Page-1" stroke="none" stroke-width="1" fill="none" fill-rule="evenodd" sketch:type="MSPage">
        <g id="save" sketch:type="MSLayerGroup">
            <g id="Group" sketch:type="MSShapeGroup">
                <rect id="Rectangle-path" fill="#3E9F06" x="0" y="5.8" width="72" height="37"></rect>
                <rect id="Rectangle-path" fill="#47BA04" x="0" y="0.8" width="72" height="38"></rect>
                <g transform="translate(21.000000, 15.000000)" id="Shape" fill="#FFFFFF">
                    <path d="M3.8,8.9 C1.7,8.9 0.4,7.9 0.4,6.2 L0.4,6 L2.4,6 L2.4,6.2 C2.4,6.9 2.9,7.4 3.8,7.4 C4.7,7.4 5.2,7 5.2,6.4 C5.2,6 5,5.8 4.6,5.6 L2.5,5 C1.2,4.7 0.5,4.1 0.5,2.7 C0.5,1 1.7,0 3.7,0 C5.6,0 6.9,1 6.9,2.6 L6.9,2.8 L5,2.8 L5,2.7 C5,2.1 4.7,1.6 3.8,1.6 C3.1,1.6 2.6,1.9 2.6,2.5 C2.6,2.9 2.8,3.1 3.2,3.2 L5.5,3.8 C6.9,4.2 7.4,4.9 7.4,6.1 C7.3,7.8 5.8,8.9 3.8,8.9 L3.8,8.9 Z"></path>
                    <path d="M13.5,7.1 L10.4,7.1 L9.9,8.7 L7.8,8.7 L10.9,0.1 L13,0.1 L16.1,8.7 L14,8.7 L13.5,7.1 L13.5,7.1 Z M10.9,5.4 L13,5.4 L12,2 L10.9,5.4 L10.9,5.4 Z"></path>
                    <path d="M20.3,8.7 L18,8.7 L15.2,0.1 L17.4,0.1 L19.2,6.4 L21,0.1 L23.2,0.1 L20.3,8.7 L20.3,8.7 Z"></path>
                    <path d="M24.2,0.2 L30.4,0.2 L30.4,2 L26.3,2 L26.3,3.6 L30,3.6 L30,5.4 L26.3,5.4 L26.3,7 L30.4,7 L30.4,8.8 L24.2,8.8 L24.2,0.2 L24.2,0.2 Z"></path>
                </g>
            </g>
        </g>
    </g>
</svg>