<?xml version="1.0" encoding="utf-8"?>
<!-- Generator: Adobe Illustrator 18.0.0, SVG Export Plug-In . SVG Version: 6.00 Build 0)  -->
<svg version="1.2" baseProfile="tiny" id="Layer_1" xmlns="http://www.w3.org/2000/svg" xmlns:xlink="http://www.w3.org/1999/xlink"
	 x="0px" y="0px" width="71.9px" height="41.6px" viewBox="0 0 71.9 41.6" xml:space="preserve">
<g>
	<rect x="0" y="4.7" fill="#1B59B2" width="72" height="37"/>
	<rect x="0" y="-0.3" fill="#3979EA" width="72" height="38"/>
	<g>
		<path fill="#C7D9FE" d="M24.7,22.9c-2.1,0-3.4-1-3.4-2.7V20h2v0.2c0,0.7,0.5,1.2,1.4,1.2c0.9,0,1.4-0.4,1.4-1
			c0-0.4-0.2-0.6-0.6-0.8L23.4,19c-1.3-0.3-2-0.9-2-2.3c0-1.7,1.2-2.7,3.2-2.7c1.9,0,3.2,1,3.2,2.6v0.2h-1.9v-0.1
			c0-0.6-0.3-1.1-1.2-1.1c-0.7,0-1.2,0.3-1.2,0.9c0,0.4,0.2,0.6,0.6,0.7l2.3,0.6c1.4,0.4,1.9,1.1,1.9,2.3
			C28.2,21.8,26.7,22.9,24.7,22.9z"/>
		<path fill="#C7D9FE" d="M34.4,21.1h-3.1l-0.5,1.6h-2.1l3.1-8.6h2.2l3.1,8.6h-2.1L34.4,21.1z M31.8,19.4h2.1l-1-3.4L31.8,19.4z"/>
		<path fill="#C7D9FE" d="M41.3,22.7H39l-2.8-8.6h2.2l1.8,6.3l1.8-6.3h2.2L41.3,22.7z"/>
		<path fill="#C7D9FE" d="M45.1,14.2h6.2v1.8h-4.1v1.6H51v1.8h-3.7V21h4.1v1.8h-6.2V14.2z"/>
	</g>
</g>
</svg>
