<?xml version="1.0" encoding="UTF-8" standalone="no"?>
<svg width="54px" height="31px" viewBox="0 0 54 31" version="1.1" xmlns="http://www.w3.org/2000/svg" xmlns:xlink="http://www.w3.org/1999/xlink" xmlns:sketch="http://www.bohemiancoding.com/sketch/ns">
    <!-- Generator: Sketch 3.4.2 (15857) - http://www.bohemiancoding.com/sketch -->
    <title>ui_dice</title>
    <desc>Created with Sketch.</desc>
    <defs></defs>
    <g id="Page-1" stroke="none" stroke-width="1" fill="none" fill-rule="evenodd" sketch:type="MSPage">
        <g id="ui_dice" sketch:type="MSLayerGroup">
            <path d="M27,23.3 L13.5,31 L0,23.3 L0,7.7 L13.5,0 L27,7.7 L27,23.3 Z" id="Shape" fill="#3979EA" sketch:type="MSShapeGroup"></path>
            <path d="M54,23.3 L40.5,31 L27,23.3 L27,7.7 L40.5,0 L54,7.7 L54,23.3 Z" id="Shape" fill="#3979EA" sketch:type="MSShapeGroup"></path>
            <circle id="Oval" fill="#FFFFFF" sketch:type="MSShapeGroup" cx="6.1" cy="19.6" r="1.9"></circle>
            <circle id="Oval" fill="#FFFFFF" sketch:type="MSShapeGroup" cx="17.5" cy="22.1" r="1.9"></circle>
            <circle id="Oval" fill="#FFFFFF" sketch:type="MSShapeGroup" cx="9.5" cy="8.9" r="1.9"></circle>
            <circle id="Oval" fill="#FFFFFF" sketch:type="MSShapeGroup" cx="20.9" cy="11.5" r="1.9"></circle>
            <circle id="Oval" fill="#FFFFFF" sketch:type="MSShapeGroup" cx="13.3" cy="15.4" r="1.9"></circle>
            <circle id="Oval" fill="#FFFFFF" sketch:type="MSShapeGroup" cx="40.2" cy="13.9" r="1.9"></circle>
            <circle id="Oval" fill="#FFFFFF" sketch:type="MSShapeGroup" cx="42.1" cy="22.6" r="1.9"></circle>
            <circle id="Oval" fill="#FFFFFF" sketch:type="MSShapeGroup" cx="33" cy="13.4" r="1.9"></circle>
            <circle id="Oval" fill="#FFFFFF" sketch:type="MSShapeGroup" cx="45.9" cy="12.7" r="1.9"></circle>
            <circle id="Oval" fill="#FFFFFF" sketch:type="MSShapeGroup" cx="45.1" cy="18.8" r="1.9"></circle>
        </g>
    </g>
</svg>