<?xml version="1.0" encoding="UTF-8" standalone="no"?>
<svg width="54px" height="31px" viewBox="0 0 54 31" version="1.1" xmlns="http://www.w3.org/2000/svg" xmlns:xlink="http://www.w3.org/1999/xlink" xmlns:sketch="http://www.bohemiancoding.com/sketch/ns">
    <!-- Generator: Sketch 3.4.2 (15857) - http://www.bohemiancoding.com/sketch -->
    <title>ui_switch</title>
    <desc>Created with Sketch.</desc>
    <defs></defs>
    <g id="Page-1" stroke="none" stroke-width="1" fill="none" fill-rule="evenodd" sketch:type="MSPage">
        <g id="ui_switch" sketch:type="MSLayerGroup">
            <path d="M27,23.3 L13.5,31 L0,23.3 L0,7.7 L13.5,0 L27,7.7 L27,23.3 Z" id="Shape" fill="#2D77ED" sketch:type="MSShapeGroup"></path>
            <path d="M54,23.3 L40.5,31 L27,23.3 L27,7.7 L40.5,0 L54,7.7 L54,23.3 Z" id="Shape" fill="#2D77ED" sketch:type="MSShapeGroup"></path>
            <path d="M36.6,20.3 C34,17.7 30.4,16.4 27,16.6 L27,18.6 C30,18.4 33,19.5 35.2,21.7 C37.4,23.9 38.5,26.9 38.3,29.8 L40.2,30.9 C40.7,27.1 39.5,23.1 36.6,20.3 L36.6,20.3 Z" id="Shape" fill="#FFFFFF" sketch:type="MSShapeGroup"></path>
            <rect id="Rectangle-path" fill="#FFFFFF" sketch:type="MSShapeGroup" transform="translate(13.716905, 16.158035) rotate(45.000000) translate(-13.716905, -16.158035) " x="12.7169146" y="9.40809973" width="1.99998082" height="13.4998705"></rect>
            <rect id="Rectangle-path" fill="#FFFFFF" sketch:type="MSShapeGroup" transform="translate(13.646195, 16.158035) rotate(45.000000) translate(-13.646195, -16.158035) " x="6.89625973" y="15.1580446" width="13.4998705" height="1.99998082"></rect>
            <rect id="Rectangle-path" fill="#FFFFFF" sketch:type="MSShapeGroup" transform="translate(39.823470, 17.088390) rotate(45.000000) translate(-39.823470, -17.088390) " x="38.8234796" y="12.188437" width="1.99998082" height="9.79990602"></rect>
            <path d="M43,21.6 L43,13.9 L35.4,13.9 L35.4,11.9 L45,11.9 L45,21.6 L43,21.6 Z" id="Shape" fill="#FFFFFF" sketch:type="MSShapeGroup"></path>
            <path d="M9.6,20.3 C7,17.6 3.5,16.4 0,16.5 L0,18.5 C3,18.3 6,19.4 8.2,21.6 C10.4,23.8 11.5,26.8 11.3,29.7 L13.2,30.8 C13.7,27.1 12.5,23.1 9.6,20.3 L9.6,20.3 Z" id="Shape" fill="#FFFFFF" sketch:type="MSShapeGroup"></path>
        </g>
    </g>
</svg>